<svg xmlns="http://www.w3.org/2000/svg" width="133" height="34" fill="none" id="svg-723209230_3078"><g opacity=".8" clip-path="url(#svg-723209230_3078_a)" fill="#fff"><path d="m48.526 8.086-6.731 17.733h3.44l1.431-4.146h7.007l1.407 4.146h3.466l-6.48-17.733h-3.54Zm-1.08 11.076c1.557-4.345 2.185-6.104 2.761-7.887.83 2.587 1.684 4.999 2.68 7.887h-5.442Zm19.199-6.096a4.81 4.81 0 0 0-3.911 1.926V8.087h-2.945V25.82h2.813v-1.633c.856 1.23 2.01 1.884 3.718 1.884 3.09 0 5.15-2.412 5.15-6.506s-1.885-6.498-4.825-6.498ZM65.592 23.62c-1.86 0-2.94-1.53-2.94-4.187 0-2.386 1.256-3.893 3.04-3.893 1.675 0 2.712 1.532 2.712 4.043 0 2.645-1.078 4.026-2.812 4.026v.011Zm12.056-8.422c1.207 0 2.162.653 2.79 1.76l2.19-1.483c-1.108-1.761-2.944-2.513-4.93-2.513-3.094 0-4.858 1.81-4.858 3.772 0 1.912 1.231 3.044 3.168 3.647l1.34.427c1.886.603 2.313.955 2.313 1.786 0 .754-.704 1.308-1.987 1.308-1.383 0-2.54-.755-3.192-2.038l-2.289 1.507c1.056 1.585 2.791 2.818 5.36 2.818 3.12 0 5.055-1.685 5.055-4 0-2.01-1.257-3.043-3.47-3.748l-1.34-.402c-1.61-.502-2.01-.854-2.01-1.608 0-.754.597-1.233 1.86-1.233Zm10.932 6.746v-6.269h2.423v-2.357H88.58V9.23h-2.927l-.057 4.09H83.64v2.356h1.956v6.852c0 1.159.178 2.042.705 2.646.528.605 1.34.907 2.568.907a8.876 8.876 0 0 0 2.198-.283V23.45c-.387.143-.796.22-1.21.226-.91.009-1.277-.444-1.277-1.733Zm6.9-6.7v-1.925h-2.814v12.563h2.948V20.02c0-1.34.221-2.224.655-2.877.546-.784 1.327-1.258 2.68-1.243.366.006.729.062 1.079.167V13.32a3.484 3.484 0 0 0-1.079-.168c-1.732.005-2.712.737-3.469 2.093Zm15.839 7.203v-4.523c0-1.963-.263-2.994-1.044-3.724-.837-.806-2.038-1.208-3.749-1.208-3.196 0-5.213 1.508-5.414 4.228l2.823.252c.151-1.384.829-2.165 2.365-2.165.781 0 1.384.168 1.736.528.351.36.479.806.479 1.508v.67c-1.989.127-4.404.479-5.637 1.031-1.484.68-2.29 1.738-2.29 3.35 0 2.24 1.61 3.676 3.9 3.676 1.785 0 3.144-.628 4.1-1.786.273 1.252 1.154 1.714 2.729 1.714.455.009.908-.059 1.34-.201v-1.91c-1.132.205-1.33-.46-1.338-1.44Zm-2.804-1.887c-.027.704-.151 1.41-.555 1.989-.553.829-1.484 1.308-2.616 1.308-1.309 0-1.913-.68-1.913-1.585 0-.705.301-1.184 1.082-1.536.881-.427 2.568-.68 4.002-.755v.58Zm10.877 3.155c-1.935 0-3.092-1.457-3.092-4.221 0-2.79 1.308-4.07 3.015-4.07 1.181 0 2.085.552 2.439 2.21l2.64-.904c-.58-2.236-2.288-3.77-5.006-3.77-3.745 0-6.109 2.488-6.109 6.584 0 4.121 2.314 6.634 5.959 6.634 2.847 0 4.501-1.508 5.231-3.594l-2.64-.904c-.3 1.332-1.104 2.035-2.437 2.035Zm10.675-1.771v-6.269h2.421v-2.357h-2.421V9.23h-2.926l-.052 4.09h-1.958v2.356h1.963v6.852c0 1.159.178 2.042.705 2.646.528.605 1.34.907 2.568.907a8.88 8.88 0 0 0 2.186-.283V23.45c-.387.143-.795.22-1.207.226-.908.009-1.279-.444-1.279-1.733ZM17.498.167C4.098.132.738 3.474.703 16.875.668 30.276 4.008 33.635 17.41 33.67c13.402.035 16.762-3.307 16.797-16.708C34.242 3.562 30.9.202 17.499.167ZM14.706 26.08a6.413 6.413 0 1 1 6.412-6.413 6.42 6.42 0 0 1-6.412 6.413Zm11.647-.263h-3.14V11.16H8.554V8.02h17.798v17.796Z"/><path d="M14.705 16.396a3.272 3.272 0 1 0 0 6.545 3.272 3.272 0 0 0 0-6.544Z"/></g><defs><clipPath id="svg-723209230_3078_a"><path fill="#fff" transform="translate(.668)" d="M0 0h132v33.838H0z"/></clipPath></defs></svg>