<svg xmlns="http://www.w3.org/2000/svg" width="90" height="63" viewBox="0 0 90 63" fill="none" id="svg-632969026_1307">
<rect x="0.263672" y="0.729492" width="89.59" height="62.2343" rx="21.8846" fill="black" fill-opacity="0.89"/>
<g clip-path="url(#svg-632969026_1307_clip0_382_1571)">
<path d="M55.1613 31.0762L42.5947 44.5404C42.4616 44.6825 42.2858 44.7774 42.0939 44.8109C41.9021 44.8443 41.7045 44.8145 41.5311 44.7258C41.3577 44.6371 41.2178 44.4945 41.1326 44.3193C41.0474 44.1442 41.0215 43.9461 41.0587 43.755L42.7036 35.5272L36.2374 33.0992C36.0986 33.0473 35.9747 32.9617 35.877 32.8502C35.7792 32.7387 35.7106 32.6048 35.6773 32.4603C35.6439 32.3158 35.6469 32.1654 35.6859 32.0223C35.7249 31.8793 35.7988 31.7481 35.9008 31.6406L48.4674 18.1764C48.6005 18.0343 48.7763 17.9394 48.9682 17.9059C49.16 17.8725 49.3576 17.9023 49.531 17.991C49.7044 18.0797 49.8443 18.2223 49.9295 18.3975C50.0147 18.5726 50.0406 18.7707 50.0034 18.9618L48.354 27.1985L54.8202 29.6232C54.958 29.6755 55.0809 29.7609 55.1779 29.872C55.2749 29.983 55.343 30.1163 55.3763 30.2599C55.4095 30.4035 55.4069 30.5531 55.3686 30.6955C55.3304 30.8379 55.2576 30.9686 55.1568 31.0762H55.1613Z" fill="#DDFF00"/>
</g>
<defs>
<clipPath id="svg-632969026_1307_clip0_382_1571">
<rect width="28.7235" height="28.7235" fill="white" transform="translate(31.166 17)"/>
</clipPath>
</defs>
</svg>