<svg xmlns="http://www.w3.org/2000/svg" width="81" height="54" fill="none" id="svg-1834789965_2017"><g filter="url(#svg-1834789965_2017_a)"><path d="M8.754 20 5.623 4.041 20 11.918l-7.082 2.055L8.754 20Z" fill="#000"/><path d="M8.754 20 5.623 4.041 20 11.918l-7.082 2.055L8.754 20Z" stroke="#fff"/></g><path d="M18 22a2 2 0 0 1 2-2h44c9.389 0 17 7.611 17 17s-7.611 17-17 17H42c-13.255 0-24-10.745-24-24v-8Z" fill="#1E3B83"/><path opacity=".8" d="M33.185 42V31.35h6.63v2.07H35.36v2.19h3.555v2.07H35.36v2.25h4.455V42h-6.63Zm8.122 0V30.75h2.055V42h-2.055Zm4.898-8.73c-.35 0-.655-.125-.915-.375a1.27 1.27 0 0 1-.39-.93c0-.36.13-.665.39-.915.26-.26.565-.39.915-.39.37 0 .68.13.93.39.26.25.39.555.39.915s-.13.67-.39.93c-.25.25-.56.375-.93.375ZM45.185 42v-7.5h2.055V42h-2.055Zm6.923.165c-.99 0-1.825-.385-2.505-1.155-.68-.77-1.02-1.69-1.02-2.76 0-1.07.34-1.99 1.02-2.76.68-.77 1.515-1.155 2.505-1.155.48 0 .91.1 1.29.3.38.2.67.435.87.705v-.84h2.055V42h-2.055v-.84c-.2.27-.49.505-.87.705-.38.2-.81.3-1.29.3Zm-.945-2.445c.35.38.81.57 1.38.57.57 0 1.025-.19 1.365-.57.35-.38.525-.87.525-1.47s-.175-1.09-.525-1.47c-.34-.38-.795-.57-1.365-.57s-1.03.19-1.38.57c-.34.38-.51.87-.51 1.47s.17 1.09.51 1.47ZM60.226 42h-2.055V30.75h2.055v4.605c.46-.68 1.175-1.02 2.145-1.02.9 0 1.605.3 2.115.9.52.59.78 1.38.78 2.37V42h-2.055v-4.05c0-.55-.115-.975-.345-1.275-.23-.31-.555-.465-.975-.465-.5 0-.905.18-1.215.54-.3.36-.45.89-.45 1.59V42Z" fill="#000"/><defs><filter id="svg-1834789965_2017_a" x="2.926" y="2.091" width="20.371" height="22.174" filterUnits="userSpaceOnUse" color-interpolation-filters="sRGB"><feFlood flood-opacity="0" result="BackgroundImageFix"/><feColorMatrix in="SourceAlpha" values="0 0 0 0 0 0 0 0 0 0 0 0 0 0 0 0 0 0 127 0" result="hardAlpha"/><feOffset dy="1"/><feGaussianBlur stdDeviation="1"/><feComposite in2="hardAlpha" operator="out"/><feColorMatrix values="0 0 0 0 0 0 0 0 0 0 0 0 0 0 0 0 0 0 0.25 0"/><feBlend in2="BackgroundImageFix" result="effect1_dropShadow_666_2925"/><feBlend in="SourceGraphic" in2="effect1_dropShadow_666_2925" result="shape"/></filter></defs></svg>