<svg xmlns="http://www.w3.org/2000/svg" width="74" height="52" viewBox="0 0 74 52" fill="none" id="svg-2086864688_2289">
<rect x="0.0917969" y="0.810547" width="72.9647" height="50.6854" rx="17.8235" fill="black" fill-opacity="0.89"/>
<g opacity="0.4" clip-path="url(#svg-2086864688_2289_clip0_382_1550)">
<path d="M46.435 18.1337V23.0203C46.435 23.2363 46.3492 23.4435 46.1964 23.5962C46.0437 23.7489 45.8366 23.8347 45.6206 23.8347H40.734C40.5728 23.8349 40.4152 23.7872 40.2812 23.6977C40.1471 23.6082 40.0426 23.481 39.9809 23.3321C39.9192 23.1832 39.9031 23.0193 39.9346 22.8613C39.9661 22.7032 40.0437 22.558 40.1578 22.4441L42.2529 20.349C40.9294 19.2383 39.0206 18.1337 36.6618 18.1337C32.9694 18.1337 30.744 20.3164 30.7226 20.3388C30.5698 20.4916 30.3625 20.5775 30.1464 20.5775C29.9303 20.5775 29.723 20.4916 29.5702 20.3388C29.4174 20.186 29.3315 19.9787 29.3315 19.7626C29.3315 19.5465 29.4174 19.3392 29.5702 19.1864C29.6801 19.0775 32.3026 16.5049 36.6618 16.5049C39.04 16.5049 41.358 17.4313 43.4094 19.1935L45.0443 17.5575C45.1582 17.4435 45.3034 17.3658 45.4615 17.3344C45.6196 17.3029 45.7834 17.319 45.9323 17.3807C46.0812 17.4424 46.2084 17.5469 46.2979 17.6809C46.3874 17.815 46.4351 17.9726 46.435 18.1337ZM42.6011 32.2173C42.5797 32.2397 40.3542 34.4223 36.6618 34.4223C34.303 34.4223 32.3942 33.3178 31.0708 32.2071L33.1659 30.112C33.2799 29.9981 33.3576 29.8529 33.3891 29.6948C33.4205 29.5368 33.4044 29.3729 33.3427 29.224C33.281 29.0751 33.1765 28.9479 33.0425 28.8584C32.9084 28.7689 32.7509 28.7212 32.5897 28.7213H27.7031C27.4871 28.7213 27.2799 28.8071 27.1272 28.9599C26.9745 29.1126 26.8887 29.3198 26.8887 29.5358V34.4223C26.8885 34.5835 26.9362 34.7411 27.0257 34.8751C27.1152 35.0092 27.2424 35.1137 27.3913 35.1754C27.5402 35.2371 27.7041 35.2532 27.8622 35.2217C28.0202 35.1902 28.1654 35.1126 28.2793 34.9985L29.9143 33.3626C31.9656 35.1248 34.2837 36.0512 36.6618 36.0512C41.0211 36.0512 43.6435 33.4786 43.7535 33.3697C43.9063 33.2169 43.9921 33.0096 43.9921 32.7935C43.9921 32.5774 43.9063 32.3701 43.7535 32.2173C43.6007 32.0644 43.3934 31.9786 43.1773 31.9786C42.9611 31.9786 42.7539 32.0644 42.6011 32.2173Z" fill="white"/>
</g>
<defs>
<clipPath id="svg-2086864688_2289_clip0_382_1550">
<rect width="26.0617" height="26.0617" fill="white" transform="translate(23.6309 13.2471)"/>
</clipPath>
</defs>
</svg>