<svg xmlns="http://www.w3.org/2000/svg" width="117" height="20" viewBox="0 0 117 20" fill="none" id="svg1549212643_8518">
<g clip-path="url(#svg1549212643_8518_clip0_679_6027)">
<path d="M10.2063 1.60996C10.3771 1.19932 10.9588 1.19932 11.1296 1.60996L13.1957 6.57744C13.2677 6.75056 13.4305 6.86885 13.6174 6.88383L18.9802 7.31376C19.4236 7.3493 19.6033 7.90256 19.2656 8.19189L15.1797 11.6919C15.0373 11.8139 14.9751 12.0053 15.0186 12.1876L16.2669 17.4208C16.3701 17.8534 15.8995 18.1954 15.5199 17.9635L10.9286 15.1592C10.7686 15.0615 10.5673 15.0615 10.4073 15.1592L5.81603 17.9635C5.43648 18.1954 4.96585 17.8534 5.06905 17.4208L6.31735 12.1876C6.36086 12.0053 6.29867 11.8139 6.15628 11.6919L2.07038 8.19189C1.73261 7.90256 1.91238 7.3493 2.3557 7.31376L7.71851 6.88383C7.90541 6.86885 8.06821 6.75056 8.14022 6.57744L10.2063 1.60996Z" fill="#F2F4F7"/>
<g clip-path="url(#svg1549212643_8518_clip1_679_6027)">
<path d="M10.2063 1.60996C10.3771 1.19932 10.9588 1.19932 11.1296 1.60996L13.1957 6.57744C13.2677 6.75056 13.4305 6.86885 13.6174 6.88383L18.9802 7.31376C19.4236 7.3493 19.6033 7.90256 19.2656 8.19189L15.1797 11.6919C15.0373 11.8139 14.9751 12.0053 15.0186 12.1876L16.2669 17.4208C16.3701 17.8534 15.8995 18.1954 15.5199 17.9635L10.9286 15.1592C10.7686 15.0615 10.5673 15.0615 10.4073 15.1592L5.81603 17.9635C5.43648 18.1954 4.96585 17.8534 5.06905 17.4208L6.31735 12.1876C6.36086 12.0053 6.29867 11.8139 6.15628 11.6919L2.07038 8.19189C1.73261 7.90256 1.91238 7.3493 2.3557 7.31376L7.71851 6.88383C7.90541 6.86885 8.06821 6.75056 8.14022 6.57744L10.2063 1.60996Z" fill="#FEC84B"/>
</g>
</g>
<g clip-path="url(#svg1549212643_8518_clip2_679_6027)">
<path d="M34.2063 1.60996C34.3771 1.19932 34.9588 1.19932 35.1296 1.60996L37.1957 6.57744C37.2677 6.75056 37.4305 6.86885 37.6174 6.88383L42.9802 7.31376C43.4236 7.3493 43.6033 7.90256 43.2656 8.19189L39.1797 11.6919C39.0373 11.8139 38.9751 12.0053 39.0186 12.1876L40.2669 17.4208C40.3701 17.8534 39.8995 18.1954 39.5199 17.9635L34.9286 15.1592C34.7686 15.0615 34.5673 15.0615 34.4073 15.1592L29.816 17.9635C29.4365 18.1954 28.9659 17.8534 29.069 17.4208L30.3174 12.1876C30.3609 12.0053 30.2987 11.8139 30.1563 11.6919L26.0704 8.19189C25.7326 7.90256 25.9124 7.3493 26.3557 7.31376L31.7185 6.88383C31.9054 6.86885 32.0682 6.75056 32.1402 6.57744L34.2063 1.60996Z" fill="#F2F4F7"/>
<g clip-path="url(#svg1549212643_8518_clip3_679_6027)">
<path d="M34.2063 1.60996C34.3771 1.19932 34.9588 1.19932 35.1296 1.60996L37.1957 6.57744C37.2677 6.75056 37.4305 6.86885 37.6174 6.88383L42.9802 7.31376C43.4236 7.3493 43.6033 7.90256 43.2656 8.19189L39.1797 11.6919C39.0373 11.8139 38.9751 12.0053 39.0186 12.1876L40.2669 17.4208C40.3701 17.8534 39.8995 18.1954 39.5199 17.9635L34.9286 15.1592C34.7686 15.0615 34.5673 15.0615 34.4073 15.1592L29.816 17.9635C29.4365 18.1954 28.9659 17.8534 29.069 17.4208L30.3174 12.1876C30.3609 12.0053 30.2987 11.8139 30.1563 11.6919L26.0704 8.19189C25.7326 7.90256 25.9124 7.3493 26.3557 7.31376L31.7185 6.88383C31.9054 6.86885 32.0682 6.75056 32.1402 6.57744L34.2063 1.60996Z" fill="#FEC84B"/>
</g>
</g>
<g clip-path="url(#svg1549212643_8518_clip4_679_6027)">
<path d="M58.2063 1.60996C58.3771 1.19932 58.9588 1.19932 59.1296 1.60996L61.1957 6.57744C61.2677 6.75056 61.4305 6.86885 61.6174 6.88383L66.9802 7.31376C67.4236 7.3493 67.6033 7.90256 67.2656 8.19189L63.1797 11.6919C63.0373 11.8139 62.9751 12.0053 63.0186 12.1876L64.2669 17.4208C64.3701 17.8534 63.8995 18.1954 63.5199 17.9635L58.9286 15.1592C58.7686 15.0615 58.5673 15.0615 58.4073 15.1592L53.816 17.9635C53.4365 18.1954 52.9659 17.8534 53.069 17.4208L54.3174 12.1876C54.3609 12.0053 54.2987 11.8139 54.1563 11.6919L50.0704 8.19189C49.7326 7.90256 49.9124 7.3493 50.3557 7.31376L55.7185 6.88383C55.9054 6.86885 56.0682 6.75056 56.1402 6.57744L58.2063 1.60996Z" fill="#F2F4F7"/>
<g clip-path="url(#svg1549212643_8518_clip5_679_6027)">
<path d="M58.2063 1.60996C58.3771 1.19932 58.9588 1.19932 59.1296 1.60996L61.1957 6.57744C61.2677 6.75056 61.4305 6.86885 61.6174 6.88383L66.9802 7.31376C67.4236 7.3493 67.6033 7.90256 67.2656 8.19189L63.1797 11.6919C63.0373 11.8139 62.9751 12.0053 63.0186 12.1876L64.2669 17.4208C64.3701 17.8534 63.8995 18.1954 63.5199 17.9635L58.9286 15.1592C58.7686 15.0615 58.5673 15.0615 58.4073 15.1592L53.816 17.9635C53.4365 18.1954 52.9659 17.8534 53.069 17.4208L54.3174 12.1876C54.3609 12.0053 54.2987 11.8139 54.1563 11.6919L50.0704 8.19189C49.7326 7.90256 49.9124 7.3493 50.3557 7.31376L55.7185 6.88383C55.9054 6.86885 56.0682 6.75056 56.1402 6.57744L58.2063 1.60996Z" fill="#FEC84B"/>
</g>
</g>
<g clip-path="url(#svg1549212643_8518_clip6_679_6027)">
<path d="M82.2063 1.60996C82.3771 1.19932 82.9588 1.19932 83.1296 1.60996L85.1957 6.57744C85.2677 6.75056 85.4305 6.86885 85.6174 6.88383L90.9802 7.31376C91.4236 7.3493 91.6033 7.90256 91.2656 8.19189L87.1797 11.6919C87.0373 11.8139 86.9751 12.0053 87.0186 12.1876L88.2669 17.4208C88.3701 17.8534 87.8995 18.1954 87.5199 17.9635L82.9286 15.1592C82.7686 15.0615 82.5673 15.0615 82.4073 15.1592L77.816 17.9635C77.4365 18.1954 76.9659 17.8534 77.069 17.4208L78.3174 12.1876C78.3609 12.0053 78.2987 11.8139 78.1563 11.6919L74.0704 8.19189C73.7326 7.90256 73.9124 7.3493 74.3557 7.31376L79.7185 6.88383C79.9054 6.86885 80.0682 6.75056 80.1402 6.57744L82.2063 1.60996Z" fill="#F2F4F7"/>
<g clip-path="url(#svg1549212643_8518_clip7_679_6027)">
<path d="M82.2063 1.60996C82.3771 1.19932 82.9588 1.19932 83.1296 1.60996L85.1957 6.57744C85.2677 6.75056 85.4305 6.86885 85.6174 6.88383L90.9802 7.31376C91.4236 7.3493 91.6033 7.90256 91.2656 8.19189L87.1797 11.6919C87.0373 11.8139 86.9751 12.0053 87.0186 12.1876L88.2669 17.4208C88.3701 17.8534 87.8995 18.1954 87.5199 17.9635L82.9286 15.1592C82.7686 15.0615 82.5673 15.0615 82.4073 15.1592L77.816 17.9635C77.4365 18.1954 76.9659 17.8534 77.069 17.4208L78.3174 12.1876C78.3609 12.0053 78.2987 11.8139 78.1563 11.6919L74.0704 8.19189C73.7326 7.90256 73.9124 7.3493 74.3557 7.31376L79.7185 6.88383C79.9054 6.86885 80.0682 6.75056 80.1402 6.57744L82.2063 1.60996Z" fill="#FEC84B"/>
</g>
</g>
<g clip-path="url(#svg1549212643_8518_clip8_679_6027)">
<path d="M106.206 1.60996C106.377 1.19932 106.959 1.19932 107.13 1.60996L109.196 6.57744C109.268 6.75056 109.431 6.86885 109.617 6.88383L114.98 7.31376C115.424 7.3493 115.603 7.90256 115.266 8.19189L111.18 11.6919C111.037 11.8139 110.975 12.0053 111.019 12.1876L112.267 17.4208C112.37 17.8534 111.899 18.1954 111.52 17.9635L106.929 15.1592C106.769 15.0615 106.567 15.0615 106.407 15.1592L101.816 17.9635C101.436 18.1954 100.966 17.8534 101.069 17.4208L102.317 12.1876C102.361 12.0053 102.299 11.8139 102.156 11.6919L98.0704 8.19189C97.7326 7.90256 97.9124 7.3493 98.3557 7.31376L103.719 6.88383C103.905 6.86885 104.068 6.75056 104.14 6.57744L106.206 1.60996Z" fill="#F2F4F7"/>
<g clip-path="url(#svg1549212643_8518_clip9_679_6027)">
<path d="M106.206 1.60996C106.377 1.19932 106.959 1.19932 107.13 1.60996L109.196 6.57744C109.268 6.75056 109.431 6.86885 109.617 6.88383L114.98 7.31376C115.424 7.3493 115.603 7.90256 115.266 8.19189L111.18 11.6919C111.037 11.8139 110.975 12.0053 111.019 12.1876L112.267 17.4208C112.37 17.8534 111.899 18.1954 111.52 17.9635L106.929 15.1592C106.769 15.0615 106.567 15.0615 106.407 15.1592L101.816 17.9635C101.436 18.1954 100.966 17.8534 101.069 17.4208L102.317 12.1876C102.361 12.0053 102.299 11.8139 102.156 11.6919L98.0704 8.19189C97.7326 7.90256 97.9124 7.3493 98.3557 7.31376L103.719 6.88383C103.905 6.86885 104.068 6.75056 104.14 6.57744L106.206 1.60996Z" fill="#FEC84B"/>
</g>
</g>
<defs>
<clipPath id="svg1549212643_8518_clip0_679_6027">
<rect width="20" height="20" fill="white" transform="translate(0.667969)"/>
</clipPath>
<clipPath id="svg1549212643_8518_clip1_679_6027">
<rect width="20" height="20" fill="white" transform="translate(0.667969)"/>
</clipPath>
<clipPath id="svg1549212643_8518_clip2_679_6027">
<rect width="20" height="20" fill="white" transform="translate(24.668)"/>
</clipPath>
<clipPath id="svg1549212643_8518_clip3_679_6027">
<rect width="20" height="20" fill="white" transform="translate(24.668)"/>
</clipPath>
<clipPath id="svg1549212643_8518_clip4_679_6027">
<rect width="20" height="20" fill="white" transform="translate(48.668)"/>
</clipPath>
<clipPath id="svg1549212643_8518_clip5_679_6027">
<rect width="20" height="20" fill="white" transform="translate(48.668)"/>
</clipPath>
<clipPath id="svg1549212643_8518_clip6_679_6027">
<rect width="20" height="20" fill="white" transform="translate(72.668)"/>
</clipPath>
<clipPath id="svg1549212643_8518_clip7_679_6027">
<rect width="20" height="20" fill="white" transform="translate(72.668)"/>
</clipPath>
<clipPath id="svg1549212643_8518_clip8_679_6027">
<rect width="20" height="20" fill="white" transform="translate(96.668)"/>
</clipPath>
<clipPath id="svg1549212643_8518_clip9_679_6027">
<rect width="20" height="20" fill="white" transform="translate(96.668)"/>
</clipPath>
</defs>
</svg>