<svg xmlns="http://www.w3.org/2000/svg" width="94" height="68" fill="none" id="svg-1721981192_3587"><g filter="url(#svg-1721981192_3587_a)"><path d="m85.246 20 3.131-15.959L74 11.918l7.082 2.055L85.246 20Z" fill="#000"/><path d="m85.246 20 3.131-15.959L74 11.918l7.082 2.055L85.246 20Z" stroke="#fff"/></g><g filter="url(#svg-1721981192_3587_b)"><path d="M76 22a2 2 0 0 0-2-2H23c-9.389 0-17 7.611-17 17s7.611 17 17 17h29c13.255 0 24-10.745 24-24v-8Z" fill="#75B78F" shape-rendering="crispEdges"/><path opacity=".8" d="M24.605 42.18c-1.21 0-2.185-.345-2.925-1.035-.74-.7-1.13-1.515-1.17-2.445h2.175c.08.47.295.835.645 1.095.35.25.775.375 1.275.375.45 0 .815-.095 1.095-.285.28-.2.42-.465.42-.795 0-.59-.475-1.02-1.425-1.29l-1.125-.33c-.87-.25-1.55-.64-2.04-1.17-.49-.53-.74-1.19-.75-1.98 0-.97.325-1.735.975-2.295.65-.57 1.515-.855 2.595-.855 1.09 0 1.975.33 2.655.99.68.65 1.04 1.4 1.08 2.25h-2.16c-.11-.42-.31-.73-.6-.93-.29-.2-.615-.3-.975-.3-.4 0-.73.09-.99.27-.25.17-.38.41-.39.72-.01.32.095.58.315.78.22.2.56.365 1.02.495l1.245.345c1.84.51 2.76 1.585 2.76 3.225 0 .92-.345 1.68-1.035 2.28-.68.59-1.57.885-2.67.885Zm8.172-.015c-.99 0-1.825-.385-2.505-1.155-.68-.77-1.02-1.69-1.02-2.76 0-1.07.34-1.99 1.02-2.76.68-.77 1.515-1.155 2.505-1.155.48 0 .91.1 1.29.3.38.2.67.435.87.705v-.84h2.055V42h-2.055v-.84c-.2.27-.49.505-.87.705-.38.2-.81.3-1.29.3Zm-.945-2.445c.35.38.81.57 1.38.57.57 0 1.025-.19 1.365-.57.35-.38.525-.87.525-1.47s-.175-1.09-.525-1.47c-.34-.38-.795-.57-1.365-.57s-1.03.19-1.38.57c-.34.38-.51.87-.51 1.47s.17 1.09.51 1.47ZM38.839 42v-7.5h2.055v1.2c.13-.37.365-.675.705-.915.35-.25.735-.375 1.155-.375.26 0 .49.03.69.09v2.085c-.33-.11-.64-.165-.93-.165-.49 0-.885.18-1.185.54-.29.35-.435.835-.435 1.455V42H38.84Zm8.55.165c-.99 0-1.825-.385-2.505-1.155-.68-.77-1.02-1.69-1.02-2.76 0-1.07.34-1.99 1.02-2.76.68-.77 1.515-1.155 2.505-1.155.48 0 .91.1 1.29.3.38.2.67.435.87.705v-.84h2.055V42h-2.055v-.84c-.2.27-.49.505-.87.705-.38.2-.81.3-1.29.3Zm-.945-2.445c.35.38.81.57 1.38.57.57 0 1.025-.19 1.365-.57.35-.38.525-.87.525-1.47s-.175-1.09-.525-1.47c-.34-.38-.795-.57-1.365-.57s-1.03.19-1.38.57c-.34.38-.51.87-.51 1.47s.17 1.09.51 1.47ZM55.507 42h-2.055V30.75h2.055v4.605c.46-.68 1.175-1.02 2.145-1.02.9 0 1.605.3 2.114.9.52.59.78 1.38.78 2.37V42h-2.054v-4.05c0-.55-.115-.975-.345-1.275-.23-.31-.555-.465-.975-.465-.5 0-.905.18-1.215.54-.3.36-.45.89-.45 1.59V42Z" fill="#000"/></g><defs><filter id="svg-1721981192_3587_a" x="70.703" y="2.091" width="20.371" height="22.174" filterUnits="userSpaceOnUse" color-interpolation-filters="sRGB"><feFlood flood-opacity="0" result="BackgroundImageFix"/><feColorMatrix in="SourceAlpha" values="0 0 0 0 0 0 0 0 0 0 0 0 0 0 0 0 0 0 127 0" result="hardAlpha"/><feOffset dy="1"/><feGaussianBlur stdDeviation="1"/><feComposite in2="hardAlpha" operator="out"/><feColorMatrix values="0 0 0 0 0 0 0 0 0 0 0 0 0 0 0 0 0 0 0.25 0"/><feBlend in2="BackgroundImageFix" result="effect1_dropShadow_666_2912"/><feBlend in="SourceGraphic" in2="effect1_dropShadow_666_2912" result="shape"/></filter><filter id="svg-1721981192_3587_b" x="0" y="14" width="90" height="54" filterUnits="userSpaceOnUse" color-interpolation-filters="sRGB"><feFlood flood-opacity="0" result="BackgroundImageFix"/><feColorMatrix in="SourceAlpha" values="0 0 0 0 0 0 0 0 0 0 0 0 0 0 0 0 0 0 127 0" result="hardAlpha"/><feOffset dx="4" dy="4"/><feGaussianBlur stdDeviation="5"/><feComposite in2="hardAlpha" operator="out"/><feColorMatrix values="0 0 0 0 0.486275 0 0 0 0 0.831373 0 0 0 0 0.992157 0 0 0 0.16 0"/><feBlend in2="BackgroundImageFix" result="effect1_dropShadow_666_2912"/><feBlend in="SourceGraphic" in2="effect1_dropShadow_666_2912" result="shape"/></filter></defs></svg>