<svg xmlns="http://www.w3.org/2000/svg" width="140" height="33" fill="none" id="svg1416573429_4138"><g opacity=".8" clip-path="url(#svg1416573429_4138_a)" fill="#fff"><path d="M48.178 11.084c0-.668-.515-1.216-1.236-1.216-.722 0-1.237.548-1.237 1.216v9.865c0 .668.515 1.216 1.236 1.216.739 0 1.237-.548 1.237-1.216v-9.865Zm12.177-1.216c-.721 0-1.22.548-1.22 1.216v4.213l.07 3.768-1.495-3.528-1.957-4.008c-.601-1.25-1.288-1.66-2.267-1.66-1.442 0-2.078.907-2.078 2.208v8.872c0 .668.498 1.216 1.22 1.216.72 0 1.219-.548 1.219-1.216l-.017-4.162-.052-4.264 1.597 3.904 1.975 4.076c.618 1.302 1.27 1.679 2.266 1.679 1.288 0 1.958-.788 1.958-2.244v-8.854c0-.668-.498-1.216-1.22-1.216Zm10.335 2.518 2.8.068c.652.018 1.167-.48 1.167-1.199 0-.719-.515-1.215-1.167-1.215l-8.106-.017c-.635 0-1.167.496-1.167 1.215 0 .72.532 1.216 1.167 1.2l2.817-.052v8.563c0 .668.515 1.216 1.236 1.216.738 0 1.254-.548 1.254-1.216v-8.563Zm8.3 9.624h6.026c.636 0 1.151-.48 1.151-1.147 0-.685-.515-1.165-1.15-1.165l-5.238.017v-2.86h4.533c.619 0 1.117-.462 1.117-1.096 0-.65-.498-1.113-1.117-1.113l-4.533.034v-2.363h5.237c.636 0 1.151-.48 1.151-1.165s-.515-1.147-1.15-1.147l-6.01.017c-1.1 0-1.718.617-1.718 1.713v8.563c0 1.096.618 1.712 1.7 1.712Zm16.994-4.88c1.631-.428 2.593-1.696 2.593-3.374 0-1.867-1.22-3.733-4.138-3.733H90.66c-1.1 0-1.718.616-1.718 1.712v9.214c0 .668.516 1.216 1.271 1.216.739 0 1.27-.548 1.27-1.216l-.016-3.22h2.078l2.112 3.802c.343.582 1.064.822 1.734.48.67-.36.859-1.08.498-1.662l-1.906-3.22Zm-4.516-4.83h2.988c1.013 0 1.648.634 1.648 1.576 0 .925-.6 1.61-1.614 1.61h-3.022V12.3Zm14.693 9.934c2.507 0 4.121-1.13 4.671-2.963.292-1.045-.326-1.798-1.254-1.798-.566 0-.944.29-1.167.924-.344.96-1.185 1.559-2.387 1.559-1.906 0-2.731-1.285-2.731-3.956 0-2.62.842-3.87 2.731-3.87 1.185 0 1.872.496 2.301 1.643.24.651.635.942 1.219.942.893 0 1.545-.719 1.271-1.712-.55-2.021-2.147-3.151-4.723-3.151-3.537 0-5.34 2.157-5.34 6.148 0 4.024 1.803 6.234 5.409 6.234Zm12.209-.035c3.64 0 5.443-2.227 5.443-6.2 0-4.008-1.854-6.217-5.443-6.217-3.606 0-5.41 2.244-5.427 6.217 0 3.99 1.838 6.2 5.427 6.2Zm0-2.295c-2.027 0-2.902-1.285-2.902-3.905 0-2.655.893-3.939 2.885-3.939 2.009 0 2.953 1.284 2.936 3.939 0 2.637-.893 3.905-2.919 3.905Zm21.429-7.894c0-1.354-.841-2.158-2.147-2.158-1.064 0-1.871.582-2.266 1.918l-1.322 4.298-.876 3.1-.842-3.1-1.408-4.298c-.395-1.25-1.082-1.918-2.284-1.918-1.322 0-2.146.787-2.146 2.157v8.94c0 .668.481 1.216 1.185 1.216.704 0 1.185-.548 1.185-1.216l-.018-4.316-.12-4.624 1.357 4.727 1.442 4.179c.309.925.893 1.233 1.649 1.233.704 0 1.27-.257 1.562-1.199l1.374-4.213 1.46-4.76-.138 4.658v4.315c0 .668.498 1.216 1.185 1.216.704 0 1.185-.548 1.185-1.216l-.017-8.94ZM27.796 17.618c0 .285-.113.559-.313.76a1.064 1.064 0 0 1-1.51 0 1.08 1.08 0 0 1-.313-.76V8.004c0-.285.113-.559.313-.76a1.064 1.064 0 0 1 1.51 0c.2.201.313.475.313.76v9.614Zm-.37 6.66c-.142.143-4.113 3.478-11.393 3.478S4.81 24.44 4.641 24.296a1.055 1.055 0 0 1-.37-.72 1.066 1.066 0 0 1 .247-.774 1.066 1.066 0 0 1 1.5-.115c.062.044 3.609 2.944 10.006 2.944 6.398 0 9.972-2.917 10.007-2.944a1.08 1.08 0 0 1 1.509.115 1.064 1.064 0 0 1-.106 1.486l-.009-.01ZM4.261 8.005a1.09 1.09 0 0 1 .355-.746c.212-.192.49-.291.774-.277a1.075 1.075 0 0 1 1.006 1.023V17.6c0 .285-.112.559-.312.76a1.063 1.063 0 0 1-1.51 0 1.08 1.08 0 0 1-.313-.76V8.004ZM9.618 5.87c.016-.287.144-.555.356-.747a1.06 1.06 0 0 1 1.471.041c.186.189.296.44.309.706v14.229c0 .285-.113.56-.313.76a1.064 1.064 0 0 1-1.51 0 1.08 1.08 0 0 1-.313-.76V5.869Zm5.383-.534c0-.285.112-.559.313-.76a1.064 1.064 0 0 1 1.51 0c.2.201.312.475.312.76V20.81c0 .286-.112.56-.312.761a1.063 1.063 0 0 1-1.51 0 1.081 1.081 0 0 1-.313-.76V5.335Zm5.294.534c0-.286.113-.56.313-.761a1.063 1.063 0 0 1 1.51 0c.2.202.313.475.313.76V20.1c0 .285-.113.56-.313.76a1.064 1.064 0 0 1-1.51 0 1.08 1.08 0 0 1-.313-.76V5.869ZM28.087 0H4.015a3.961 3.961 0 0 0-2.831 1.162A4.022 4.022 0 0 0 0 4.002v24.012a4.048 4.048 0 0 0 1.184 2.84 3.985 3.985 0 0 0 2.83 1.162h24.073a3.961 3.961 0 0 0 2.828-1.159 4.02 4.02 0 0 0 1.187-2.834V4.003a4.044 4.044 0 0 0-1.18-2.838A3.985 3.985 0 0 0 28.095 0"/></g><defs><clipPath id="svg1416573429_4138_a"><path fill="#fff" d="M0 0h140v32.016H0z"/></clipPath></defs></svg>