<svg xmlns="http://www.w3.org/2000/svg" width="111" height="33" fill="none" id="svg-1862715671_1639"><g clip-path="url(#svg-1862715671_1639_a)" fill="#fff"><path d="M33.345 14.773H23.289l8.708-5.027-1.727-2.992-8.71 5.027 5.028-8.707-2.992-1.726-5.028 8.704V0H15.11v10.053l-5.028-8.706L7.09 3.075l5.027 8.704L3.41 6.754 1.68 9.746l8.71 5.027H.333v3.455h10.055L1.68 23.255l1.727 2.992 8.71-5.027-5.028 8.707 2.992 1.727 5.03-8.706V33h3.456V22.733l5.12 8.866 2.806-1.62-5.121-8.868 8.895 5.135 1.728-2.992-8.707-5.027h10.055v-3.454h.001ZM16.84 21.197a4.697 4.697 0 0 1-1.8-9.038 4.7 4.7 0 0 1 5.12 1.018 4.698 4.698 0 0 1-3.32 8.02Z" fill-opacity=".4"/><path d="M42.254 28.57V4.43h4.43v24.14h-4.43ZM84.75 12.165h4.23v2.002c.9-1.6 3-2.469 4.799-2.469 2.233 0 4.032.968 4.864 2.734 1.298-2.002 3.032-2.734 5.198-2.734 3.031 0 5.929 1.834 5.929 6.235V28.57h-4.297v-9.736c0-1.767-.867-3.102-2.899-3.102-1.9 0-3.033 1.469-3.033 3.236v9.603h-4.396v-9.737c0-1.767-.9-3.102-2.9-3.102-1.932 0-3.065 1.436-3.065 3.236v9.603h-4.43V12.165Zm-28.052 16.88c-4.992 0-8.606-3.703-8.606-8.677 0-4.895 3.603-8.686 8.606-8.686 5.027 0 8.606 3.826 8.606 8.686 0 4.939-3.616 8.678-8.606 8.678Zm0-13.348a4.674 4.674 0 0 0-4.668 4.672 4.675 4.675 0 0 0 4.668 4.671 4.675 4.675 0 0 0 4.667-4.671 4.675 4.675 0 0 0-4.667-4.672Zm18.07 13.349c-4.992 0-8.607-3.704-8.607-8.678 0-4.895 3.604-8.686 8.607-8.686 5.027 0 8.606 3.826 8.606 8.686 0 4.939-3.619 8.678-8.606 8.678Zm0-13.405a4.73 4.73 0 0 0-4.723 4.725 4.73 4.73 0 0 0 4.723 4.726 4.73 4.73 0 0 0 4.722-4.726 4.73 4.73 0 0 0-4.722-4.725Z"/></g><defs><clipPath id="svg-1862715671_1639_a"><path fill="#fff" transform="translate(.334)" d="M0 0h110v33H0z"/></clipPath></defs></svg>